<?xml version="1.0" encoding="UTF-8"?>
<svg width="19px" height="14px" viewBox="0 0 19 14" version="1.1" xmlns="http://www.w3.org/2000/svg" xmlns:xlink="http://www.w3.org/1999/xlink">
    <!-- Generator: Sketch 51 (57462) - http://www.bohemiancoding.com/sketch -->
    <title>Combined Shape</title>
    <desc>Created with Sketch.</desc>
    <defs></defs>
    <g id="New-website-tallius" stroke="none" stroke-width="1" fill="none" fill-rule="evenodd">
        <g id="15&quot;-MacBook-Copy-8" transform="translate(-416.000000, -5840.000000)">
            <path d="M417,5840 L434,5840 C434.552285,5840 435,5840.44772 435,5841 C435,5841.55228 434.552285,5842 434,5842 L417,5842 C416.447715,5842 416,5841.55228 416,5841 C416,5840.44772 416.447715,5840 417,5840 Z M417,5844 L434,5844 C434.552285,5844 435,5844.44772 435,5845 C435,5845.55228 434.552285,5846 434,5846 L417,5846 C416.447715,5846 416,5845.55228 416,5845 C416,5844.44772 416.447715,5844 417,5844 Z M417,5848 L434,5848 C434.552285,5848 435,5848.44772 435,5849 C435,5849.55228 434.552285,5850 434,5850 L417,5850 C416.447715,5850 416,5849.55228 416,5849 C416,5848.44772 416.447715,5848 417,5848 Z M417,5852 L428.3,5852 C428.852285,5852 429.3,5852.44772 429.3,5853 C429.3,5853.55228 428.852285,5854 428.3,5854 L417,5854 C416.447715,5854 416,5853.55228 416,5853 C416,5852.44772 416.447715,5852 417,5852 Z" id="Combined-Shape" fill="#282A3D"></path>
        </g>
    </g>
</svg>