<?xml version="1.0" encoding="UTF-8"?>
<svg width="19px" height="13px" viewBox="0 0 19 13" version="1.1" xmlns="http://www.w3.org/2000/svg" xmlns:xlink="http://www.w3.org/1999/xlink">
    <!-- Generator: Sketch 51 (57462) - http://www.bohemiancoding.com/sketch -->
    <title>Combined Shape</title>
    <desc>Created with Sketch.</desc>
    <defs></defs>
    <g id="New-website-tallius" stroke="none" stroke-width="1" fill="none" fill-rule="evenodd">
        <g id="15&quot;-MacBook-Copy-8" transform="translate(-545.000000, -5841.000000)">
            <path d="M546,5841 L547,5841 C547.552285,5841 548,5841.44772 548,5842 L548,5843 C548,5843.55228 547.552285,5844 547,5844 L546,5844 C545.447715,5844 545,5843.55228 545,5843 L545,5842 C545,5841.44772 545.447715,5841 546,5841 Z M546,5846 L547,5846 C547.552285,5846 548,5846.44772 548,5847 L548,5848 C548,5848.55228 547.552285,5849 547,5849 L546,5849 C545.447715,5849 545,5848.55228 545,5848 L545,5847 C545,5846.44772 545.447715,5846 546,5846 Z M546,5851 L547,5851 C547.552285,5851 548,5851.44772 548,5852 L548,5853 C548,5853.55228 547.552285,5854 547,5854 L546,5854 C545.447715,5854 545,5853.55228 545,5853 L545,5852 C545,5851.44772 545.447715,5851 546,5851 Z M550.75,5841.75 L563.25,5841.75 C563.664214,5841.75 564,5842.08579 564,5842.5 C564,5842.91421 563.664214,5843.25 563.25,5843.25 L550.75,5843.25 C550.335786,5843.25 550,5842.91421 550,5842.5 C550,5842.08579 550.335786,5841.75 550.75,5841.75 Z M550.75,5846.75 L563.25,5846.75 C563.664214,5846.75 564,5847.08579 564,5847.5 C564,5847.91421 563.664214,5848.25 563.25,5848.25 L550.75,5848.25 C550.335786,5848.25 550,5847.91421 550,5847.5 C550,5847.08579 550.335786,5846.75 550.75,5846.75 Z M550.75,5851.75 L563.25,5851.75 C563.664214,5851.75 564,5852.08579 564,5852.5 C564,5852.91421 563.664214,5853.25 563.25,5853.25 L550.75,5853.25 C550.335786,5853.25 550,5852.91421 550,5852.5 C550,5852.08579 550.335786,5851.75 550.75,5851.75 Z" id="Combined-Shape" fill="#282A3D"></path>
        </g>
    </g>
</svg>