<?xml version="1.0" encoding="UTF-8"?>
<svg width="13px" height="17px" viewBox="0 0 13 17" version="1.1" xmlns="http://www.w3.org/2000/svg" xmlns:xlink="http://www.w3.org/1999/xlink">
    <!-- Generator: Sketch 51 (57462) - http://www.bohemiancoding.com/sketch -->
    <title>Browse Icon</title>
    <desc>Created with Sketch.</desc>
    <defs></defs>
    <g id="New-website-tallius" stroke="none" stroke-width="1" fill="none" fill-rule="evenodd">
        <g id="15&quot;-MacBook-Copy-8" transform="translate(-307.000000, -5839.000000)">
x            <path d="M318.58856,5839.02387 L311.74776,5840.56046 C311.38056,5840.64298 311.08,5841.01946 311.08,5841.3973 L311.08,5842.41009 L311.06912,5842.41009 L311.06912,5850.96602 C311.06912,5851.33908 310.77128,5851.71215 310.40816,5851.79535 L308.53068,5852.22162 C307.68884,5852.41326 307,5853.27806 307,5854.14423 L307,5854.29632 C307,5855.2375 307.76024,5856 308.69864,5856 L309.35212,5856 C310.6516,5856 311.70492,5854.94423 311.70492,5853.6409 L311.70492,5847.73461 L311.71648,5847.73461 L311.71648,5847.13239 L311.71648,5845.05905 C311.71648,5844.76101 311.95448,5844.46843 312.24552,5844.40977 L318.46548,5843.14599 C318.70892,5843.09689 318.93672,5843.28308 318.93672,5843.5327 L318.93672,5848.92201 C318.93672,5849.29507 318.63956,5849.66746 318.27576,5849.7493 L316.34116,5850.18374 C315.50476,5850.3713 314.82,5851.22928 314.82,5852.0893 L314.82,5852.24685 C314.82,5853.19145 315.58364,5853.95667 316.52476,5853.95667 L317.2034,5853.95667 C318.51648,5853.95667 319.58,5852.88999 319.58,5851.57438 L319.58,5840.36472 L319.57864,5840.36472 L319.57864,5839.82047 C319.57864,5839.33419 319.2434,5839 318.79868,5839 C318.73136,5839 318.66064,5839.00818 318.58856,5839.02387 L318.58856,5839.02387 Z" id="Browse-Icon" fill="#282A3D"></path>
        </g>
    </g>
</svg>