<?xml version="1.0" encoding="UTF-8"?>
<svg width="16px" height="18px" viewBox="0 0 16 18" version="1.1" xmlns="http://www.w3.org/2000/svg" xmlns:xlink="http://www.w3.org/1999/xlink">
    <!-- Generator: Sketch 51 (57462) - http://www.bohemiancoding.com/sketch -->
    <title>Group 2</title>
    <desc>Created with Sketch.</desc>
    <defs></defs>
    <g id="Symbols" stroke="none" stroke-width="1" fill="none" fill-rule="evenodd">
        <g id="Icons/Refresh" fill="#525252">
            <g id="Group" transform="translate(-1.000000, 0.000000)">
                <g id="Group-2">
                    <path d="M9,2.25 C9.41421356,2.25 9.75,2.58578644 9.75,3 C9.75,3.41421356 9.41421356,3.75 9,3.75 C5.54822031,3.75 2.75,6.54822031 2.75,10 C2.75,13.4517797 5.54822031,16.25 9,16.25 C12.4517797,16.25 15.25,13.4517797 15.25,10 C15.25,9.58578644 15.5857864,9.25 16,9.25 C16.4142136,9.25 16.75,9.58578644 16.75,10 C16.75,14.2802068 13.2802068,17.75 9,17.75 C4.71979319,17.75 1.25,14.2802068 1.25,10 C1.25,5.71979319 4.71979319,2.25 9,2.25 Z" id="Oval" fill-rule="nonzero" transform="translate(9.000000, 10.000000) rotate(3.000000) translate(-9.000000, -10.000000) "></path>
                    <path d="M9.06205506,0.482001901 C8.58322046,0.215799602 8.19504832,0.45097518 8.19504832,0.990777969 L8.19504832,5.00922203 C8.19504832,5.55641359 8.58313591,5.7842474 9.06205506,5.5179981 L12.7243278,3.4820019 C13.2031624,3.2157996 13.203247,2.7842474 12.7243278,2.5179981 L9.06205506,0.482001901 Z" id="Path-15"></path>
                </g>
            </g>
        </g>
    </g>
</svg>