<?xml version="1.0" encoding="UTF-8"?>
<svg width="75px" height="75px" viewBox="0 0 75 75" version="1.1" xmlns="http://www.w3.org/2000/svg" xmlns:xlink="http://www.w3.org/1999/xlink">
    <!-- Generator: Sketch 51 (57462) - http://www.bohemiancoding.com/sketch -->
    <title>Group 3</title>
    <desc>Created with Sketch.</desc>
    <defs>
        <linearGradient x1="50%" y1="0%" x2="50%" y2="100%" id="linearGradient-1">
            <stop stop-color="#FFFFFF" offset="0%"></stop>
            <stop stop-color="#FFFFFF" stop-opacity="0.260275136" offset="100%"></stop>
        </linearGradient>
    </defs>
    <g id="New-Website" stroke="none" stroke-width="1" fill="none" fill-rule="evenodd">
        <g id="Desktop-HD-Copy-3" transform="translate(-684.000000, -1216.000000)">
            <rect fill="#EDEEF3" x="0" y="0" width="1440" height="6344"></rect>
            <g id="Group-6" transform="translate(601.000000, 1216.000000)" fill-rule="nonzero">
                <g id="Group-3" transform="translate(83.000000, 0.000000)">
                    <circle id="Oval-Copy" fill="#242424" cx="37.5" cy="37.5" r="37.5"></circle>
                    <rect id="Rectangle-2-Copy" fill="url(#linearGradient-1)" opacity="0.4" x="23" y="24" width="30" height="29" rx="3"></rect>
                    <path d="M37,23 L48,23 C48.5522847,23 49,23.4477153 49,24 L49,37.1473981 C49,37.6996829 48.5522847,38.1473981 48,38.1473981 C47.8050046,38.1473981 47.6142634,38.0903883 47.4512499,37.9833846 L43.0487501,35.0935385 C42.7155976,34.8748538 42.2844024,34.8748538 41.9512499,35.0935385 L37.5487501,37.9833846 C37.0870475,38.2864509 36.4670798,38.1578508 36.1640135,37.6961482 C36.0570098,37.5331347 36,37.3423935 36,37.1473981 L36,24 C36,23.4477153 36.4477153,23 37,23 Z" id="Rectangle-3" fill="#FFFFFF"></path>
                </g>
            </g>
        </g>
    </g>
</svg>